<svg width="29" height="29" viewBox="0 0 29 29" fill="none" xmlns="http://www.w3.org/2000/svg">
<g clip-path="url(#clip0_287_107)">
<path d="M9.77757 4.72593C7.36049 4.72593 5.39404 6.69324 5.39404 9.11134C5.39404 9.44728 5.66626 9.71956 6.00197 9.71956C6.33773 9.71956 6.60989 9.44728 6.60989 9.11134C6.60989 7.36392 8.03089 5.94231 9.77757 5.94231C10.1133 5.94231 10.3855 5.67003 10.3855 5.33409C10.3855 4.99821 10.1133 4.72593 9.77757 4.72593Z" fill="black"/>
<path d="M20.4845 16.0039C21.5834 14.28 22.2202 12.2347 22.2202 10.0428C22.2202 3.91252 17.2368 -1.0739 11.1101 -1.0739C8.91948 -1.0739 6.87538 -0.43669 5.15254 0.662874C3.77986 1.53854 2.6117 2.70737 1.73654 4.08085C0.637604 5.80477 0 7.85085 0 10.0428C0 16.1723 4.98426 21.1594 11.1101 21.1594C13.3007 21.1594 15.3456 20.5214 17.0685 19.4219C18.4412 18.5462 19.6093 17.3774 20.4845 16.0039ZM14.7129 17.0648C13.6324 17.6223 12.4071 17.9372 11.1101 17.9372C6.76029 17.9372 3.2203 14.3952 3.2203 10.0428C3.2203 8.74504 3.53511 7.519 4.09223 6.43795C4.84657 4.97345 6.04537 3.77477 7.50896 3.02077C8.58938 2.46331 9.81389 2.14833 11.1101 2.14833C15.4607 2.14833 18.9999 5.68956 18.9999 10.0428C18.9999 11.3397 18.6851 12.565 18.1279 13.646C17.3745 15.1105 16.1764 16.31 14.7129 17.0648Z" fill="black"/>
<path d="M28.2929 23.7999L21.8788 17.3981C20.9658 18.7321 19.7961 19.9018 18.4629 20.8161L24.8769 27.2179C25.3487 27.6899 25.967 27.9259 26.5845 27.9259C27.2028 27.9259 27.8212 27.6899 28.2929 27.2179C29.2357 26.2737 29.2357 24.744 28.2929 23.7999Z" fill="black"/>
</g>
<defs>
<clipPath id="clip0_287_107">
<rect width="29" height="29" fill="white"/>
</clipPath>
</defs>
</svg>
