<svg width="229" height="209" viewBox="0 0 229 209" fill="none" xmlns="http://www.w3.org/2000/svg">
<path d="M219.375 200.971C221.221 200.971 222.968 200.171 224.13 198.79C225.293 197.409 225.746 195.598 225.365 193.86L221.51 176.3C223.705 174.255 225.085 171.401 225.085 168.227C225.085 164.886 223.539 161.923 221.14 159.864V98.8811L205.686 108.087V159.864C203.286 161.923 201.74 164.886 201.74 168.227C201.74 171.401 203.12 174.256 205.316 176.3L201.46 193.86C201.079 195.599 201.533 197.41 202.695 198.79C203.858 200.17 205.604 200.971 207.45 200.971H219.375ZM224.613 63.2954L124.076 3.39057C121.131 1.6448 117.812 0.768433 114.493 0.768433C111.174 0.768433 107.852 1.64407 104.925 3.39057L4.38639 63.2954C1.70178 64.8943 0.0712891 67.7184 0.0712891 70.7578C0.0712891 73.7977 1.70178 76.6227 4.38639 78.2242L104.925 138.13C107.852 139.877 111.173 140.752 114.492 140.752C117.812 140.752 121.131 139.876 124.075 138.13L224.613 78.2242C227.298 76.6235 228.928 73.7977 228.928 70.7578C228.928 67.7184 227.298 64.8934 224.613 63.2954ZM114.492 155.626C108.23 155.626 102.117 153.952 96.7895 150.778L38.1448 115.832V176.006C38.1448 193.815 72.3429 208.232 114.492 208.232C156.657 208.232 190.852 193.815 190.852 176.006V115.832L132.21 150.778C126.882 153.952 120.755 155.626 114.492 155.626Z" fill="black"/>
</svg>
